<mxfile host="app.diagrams.net" agent="Mozilla/5.0 (Windows NT 10.0; Win64; x64) AppleWebKit/537.36 (KHTML, like Gecko) Chrome/130.0.0.0 Safari/537.36" version="24.8.4">
  <diagram name="Page-1" id="eEoD68UYFndWdi5jgf4z">
    <mxGraphModel dx="4664" dy="2889" grid="1" gridSize="10" guides="1" tooltips="1" connect="1" arrows="1" fold="1" page="1" pageScale="1" pageWidth="850" pageHeight="1100" math="0" shadow="0">
      <root>
        <mxCell id="0" />
        <mxCell id="1" parent="0" />
        <mxCell id="_M13H955xm92BstBZ7Hc-32" value="" style="rounded=0;whiteSpace=wrap;html=1;" vertex="1" parent="1">
          <mxGeometry x="-50" y="-70" width="2530" height="1330" as="geometry" />
        </mxCell>
        <mxCell id="_M13H955xm92BstBZ7Hc-30" value="" style="rounded=1;whiteSpace=wrap;html=1;strokeWidth=4;dashed=1;fillColor=#ffe6cc;strokeColor=#d79b00;" vertex="1" parent="1">
          <mxGeometry x="70" y="40" width="270" height="1150" as="geometry" />
        </mxCell>
        <mxCell id="_M13H955xm92BstBZ7Hc-16" style="edgeStyle=orthogonalEdgeStyle;rounded=0;orthogonalLoop=1;jettySize=auto;html=1;exitX=1;exitY=0.5;exitDx=0;exitDy=0;strokeWidth=4;" edge="1" parent="1" source="_M13H955xm92BstBZ7Hc-1" target="_M13H955xm92BstBZ7Hc-6">
          <mxGeometry relative="1" as="geometry" />
        </mxCell>
        <mxCell id="_M13H955xm92BstBZ7Hc-1" value="&lt;font style=&quot;font-size: 35px;&quot;&gt;Nylon&lt;/font&gt;" style="rounded=1;whiteSpace=wrap;html=1;strokeWidth=6;" vertex="1" parent="1">
          <mxGeometry x="110" y="100" width="170" height="90" as="geometry" />
        </mxCell>
        <mxCell id="_M13H955xm92BstBZ7Hc-17" style="edgeStyle=orthogonalEdgeStyle;rounded=0;orthogonalLoop=1;jettySize=auto;html=1;exitX=1;exitY=0.5;exitDx=0;exitDy=0;entryX=0;entryY=0.5;entryDx=0;entryDy=0;strokeWidth=4;" edge="1" parent="1" source="_M13H955xm92BstBZ7Hc-2" target="_M13H955xm92BstBZ7Hc-7">
          <mxGeometry relative="1" as="geometry" />
        </mxCell>
        <mxCell id="_M13H955xm92BstBZ7Hc-2" value="&lt;font style=&quot;font-size: 35px;&quot;&gt;Rice husk&lt;/font&gt;" style="rounded=1;whiteSpace=wrap;html=1;strokeWidth=6;" vertex="1" parent="1">
          <mxGeometry x="110" y="320" width="170" height="90" as="geometry" />
        </mxCell>
        <mxCell id="_M13H955xm92BstBZ7Hc-18" style="edgeStyle=orthogonalEdgeStyle;rounded=0;orthogonalLoop=1;jettySize=auto;html=1;exitX=1;exitY=0.5;exitDx=0;exitDy=0;strokeWidth=4;" edge="1" parent="1" source="_M13H955xm92BstBZ7Hc-3" target="_M13H955xm92BstBZ7Hc-8">
          <mxGeometry relative="1" as="geometry" />
        </mxCell>
        <mxCell id="_M13H955xm92BstBZ7Hc-3" value="&lt;font style=&quot;font-size: 35px;&quot;&gt;Saw Dust&lt;/font&gt;" style="rounded=1;whiteSpace=wrap;html=1;strokeWidth=6;" vertex="1" parent="1">
          <mxGeometry x="110" y="540" width="170" height="90" as="geometry" />
        </mxCell>
        <mxCell id="_M13H955xm92BstBZ7Hc-19" style="edgeStyle=orthogonalEdgeStyle;rounded=0;orthogonalLoop=1;jettySize=auto;html=1;exitX=1;exitY=0.5;exitDx=0;exitDy=0;entryX=-0.016;entryY=0.647;entryDx=0;entryDy=0;entryPerimeter=0;strokeWidth=4;" edge="1" parent="1" source="_M13H955xm92BstBZ7Hc-4" target="_M13H955xm92BstBZ7Hc-9">
          <mxGeometry relative="1" as="geometry">
            <mxPoint x="380" y="856" as="targetPoint" />
            <Array as="points">
              <mxPoint x="280" y="850" />
            </Array>
          </mxGeometry>
        </mxCell>
        <mxCell id="_M13H955xm92BstBZ7Hc-4" value="&lt;font style=&quot;font-size: 35px;&quot;&gt;Limestone&lt;/font&gt;" style="rounded=1;whiteSpace=wrap;html=1;strokeWidth=6;" vertex="1" parent="1">
          <mxGeometry x="110" y="810" width="170" height="90" as="geometry" />
        </mxCell>
        <mxCell id="_M13H955xm92BstBZ7Hc-31" value="" style="rounded=1;whiteSpace=wrap;html=1;strokeWidth=4;dashed=1;fillColor=#e1d5e7;strokeColor=#9673a6;" vertex="1" parent="1">
          <mxGeometry x="650" y="170" width="1380" height="360" as="geometry" />
        </mxCell>
        <mxCell id="_M13H955xm92BstBZ7Hc-20" style="edgeStyle=orthogonalEdgeStyle;rounded=0;orthogonalLoop=1;jettySize=auto;html=1;exitX=1;exitY=0.5;exitDx=0;exitDy=0;entryX=0.006;entryY=0.557;entryDx=0;entryDy=0;entryPerimeter=0;strokeWidth=4;" edge="1" parent="1" source="_M13H955xm92BstBZ7Hc-5" target="_M13H955xm92BstBZ7Hc-10">
          <mxGeometry relative="1" as="geometry">
            <mxPoint x="390" y="1105.4" as="targetPoint" />
          </mxGeometry>
        </mxCell>
        <mxCell id="_M13H955xm92BstBZ7Hc-5" value="&lt;font style=&quot;font-size: 25px;&quot;&gt;Banana Pseudo Stem&lt;/font&gt;" style="rounded=1;whiteSpace=wrap;html=1;strokeWidth=6;" vertex="1" parent="1">
          <mxGeometry x="110" y="1060" width="170" height="90" as="geometry" />
        </mxCell>
        <mxCell id="_M13H955xm92BstBZ7Hc-25" style="edgeStyle=orthogonalEdgeStyle;rounded=0;orthogonalLoop=1;jettySize=auto;html=1;exitX=1;exitY=0.5;exitDx=0;exitDy=0;entryX=0.5;entryY=0;entryDx=0;entryDy=0;strokeWidth=4;" edge="1" parent="1" source="_M13H955xm92BstBZ7Hc-6" target="_M13H955xm92BstBZ7Hc-11">
          <mxGeometry relative="1" as="geometry" />
        </mxCell>
        <mxCell id="_M13H955xm92BstBZ7Hc-6" value="&lt;font style=&quot;font-size: 35px;&quot;&gt;Shredded Nylons&lt;/font&gt;" style="whiteSpace=wrap;html=1;aspect=fixed;strokeWidth=6;fillColor=#f8cecc;strokeColor=#b85450;" vertex="1" parent="1">
          <mxGeometry x="400" y="60" width="170" height="170" as="geometry" />
        </mxCell>
        <mxCell id="_M13H955xm92BstBZ7Hc-29" style="edgeStyle=orthogonalEdgeStyle;rounded=0;orthogonalLoop=1;jettySize=auto;html=1;exitX=1;exitY=0.5;exitDx=0;exitDy=0;entryX=0;entryY=0.5;entryDx=0;entryDy=0;strokeWidth=4;" edge="1" parent="1" source="_M13H955xm92BstBZ7Hc-7" target="_M13H955xm92BstBZ7Hc-11">
          <mxGeometry relative="1" as="geometry">
            <Array as="points">
              <mxPoint x="570" y="355" />
            </Array>
          </mxGeometry>
        </mxCell>
        <mxCell id="_M13H955xm92BstBZ7Hc-7" value="&lt;font style=&quot;font-size: 35px;&quot;&gt;Carbon Rice Husk&lt;/font&gt;" style="whiteSpace=wrap;html=1;aspect=fixed;strokeWidth=6;fillColor=#f8cecc;strokeColor=#b85450;" vertex="1" parent="1">
          <mxGeometry x="400" y="280" width="170" height="170" as="geometry" />
        </mxCell>
        <mxCell id="_M13H955xm92BstBZ7Hc-28" style="edgeStyle=orthogonalEdgeStyle;rounded=0;orthogonalLoop=1;jettySize=auto;html=1;exitX=1;exitY=0.5;exitDx=0;exitDy=0;strokeWidth=4;" edge="1" parent="1" source="_M13H955xm92BstBZ7Hc-8">
          <mxGeometry relative="1" as="geometry">
            <mxPoint x="820" y="585" as="targetPoint" />
          </mxGeometry>
        </mxCell>
        <mxCell id="_M13H955xm92BstBZ7Hc-8" value="&lt;font style=&quot;font-size: 35px;&quot;&gt;Sieve&lt;/font&gt;" style="whiteSpace=wrap;html=1;aspect=fixed;strokeWidth=6;fillColor=#f8cecc;strokeColor=#b85450;" vertex="1" parent="1">
          <mxGeometry x="400" y="500" width="170" height="170" as="geometry" />
        </mxCell>
        <mxCell id="_M13H955xm92BstBZ7Hc-27" style="edgeStyle=orthogonalEdgeStyle;rounded=0;orthogonalLoop=1;jettySize=auto;html=1;exitX=1;exitY=0.5;exitDx=0;exitDy=0;strokeWidth=4;" edge="1" parent="1" source="_M13H955xm92BstBZ7Hc-9">
          <mxGeometry relative="1" as="geometry">
            <mxPoint x="820" y="825" as="targetPoint" />
          </mxGeometry>
        </mxCell>
        <mxCell id="_M13H955xm92BstBZ7Hc-9" value="&lt;font style=&quot;font-size: 35px;&quot;&gt;Crusher&lt;/font&gt;" style="whiteSpace=wrap;html=1;aspect=fixed;strokeWidth=6;fillColor=#f8cecc;strokeColor=#b85450;" vertex="1" parent="1">
          <mxGeometry x="400" y="740" width="170" height="170" as="geometry" />
        </mxCell>
        <mxCell id="_M13H955xm92BstBZ7Hc-26" style="edgeStyle=orthogonalEdgeStyle;rounded=0;orthogonalLoop=1;jettySize=auto;html=1;exitX=1;exitY=0.5;exitDx=0;exitDy=0;entryX=0.5;entryY=1;entryDx=0;entryDy=0;strokeWidth=4;" edge="1" parent="1" source="_M13H955xm92BstBZ7Hc-10" target="_M13H955xm92BstBZ7Hc-11">
          <mxGeometry relative="1" as="geometry" />
        </mxCell>
        <mxCell id="_M13H955xm92BstBZ7Hc-10" value="&lt;font style=&quot;font-size: 35px;&quot;&gt;Extractor&lt;/font&gt;" style="whiteSpace=wrap;html=1;aspect=fixed;strokeWidth=6;fillColor=#f8cecc;strokeColor=#b85450;" vertex="1" parent="1">
          <mxGeometry x="400" y="1010" width="170" height="170" as="geometry" />
        </mxCell>
        <mxCell id="_M13H955xm92BstBZ7Hc-21" style="edgeStyle=orthogonalEdgeStyle;rounded=0;orthogonalLoop=1;jettySize=auto;html=1;exitX=1;exitY=0.5;exitDx=0;exitDy=0;entryX=0;entryY=0.5;entryDx=0;entryDy=0;strokeWidth=4;strokeColor=#921c1c;" edge="1" parent="1" source="_M13H955xm92BstBZ7Hc-11" target="_M13H955xm92BstBZ7Hc-12">
          <mxGeometry relative="1" as="geometry" />
        </mxCell>
        <mxCell id="_M13H955xm92BstBZ7Hc-11" value="&lt;font style=&quot;font-size: 45px;&quot;&gt;Mixer&lt;/font&gt;" style="rounded=1;whiteSpace=wrap;html=1;strokeWidth=6;fillColor=#ffe6cc;strokeColor=#d79b00;" vertex="1" parent="1">
          <mxGeometry x="690" y="290" width="250" height="130" as="geometry" />
        </mxCell>
        <mxCell id="_M13H955xm92BstBZ7Hc-22" style="edgeStyle=orthogonalEdgeStyle;rounded=0;orthogonalLoop=1;jettySize=auto;html=1;exitX=1;exitY=0.5;exitDx=0;exitDy=0;strokeWidth=4;strokeColor=#921c1c;" edge="1" parent="1" source="_M13H955xm92BstBZ7Hc-12" target="_M13H955xm92BstBZ7Hc-13">
          <mxGeometry relative="1" as="geometry" />
        </mxCell>
        <mxCell id="_M13H955xm92BstBZ7Hc-12" value="&lt;font style=&quot;font-size: 45px;&quot;&gt;Mould&lt;/font&gt;" style="rounded=1;whiteSpace=wrap;html=1;strokeWidth=6;fillColor=#ffe6cc;strokeColor=#d79b00;" vertex="1" parent="1">
          <mxGeometry x="1025" y="290" width="250" height="130" as="geometry" />
        </mxCell>
        <mxCell id="_M13H955xm92BstBZ7Hc-23" style="edgeStyle=orthogonalEdgeStyle;rounded=0;orthogonalLoop=1;jettySize=auto;html=1;exitX=1;exitY=0.5;exitDx=0;exitDy=0;strokeWidth=4;strokeColor=#921c1c;" edge="1" parent="1" source="_M13H955xm92BstBZ7Hc-13">
          <mxGeometry relative="1" as="geometry">
            <mxPoint x="1680" y="355.6666666666665" as="targetPoint" />
          </mxGeometry>
        </mxCell>
        <mxCell id="_M13H955xm92BstBZ7Hc-13" value="&lt;font style=&quot;font-size: 45px;&quot;&gt;Compactor&lt;/font&gt;" style="rounded=1;whiteSpace=wrap;html=1;strokeWidth=6;fillColor=#ffe6cc;strokeColor=#d79b00;" vertex="1" parent="1">
          <mxGeometry x="1350" y="290" width="250" height="130" as="geometry" />
        </mxCell>
        <mxCell id="_M13H955xm92BstBZ7Hc-24" style="edgeStyle=orthogonalEdgeStyle;rounded=0;orthogonalLoop=1;jettySize=auto;html=1;exitX=1;exitY=0.5;exitDx=0;exitDy=0;strokeWidth=4;strokeColor=#921c1c;" edge="1" parent="1" source="_M13H955xm92BstBZ7Hc-14">
          <mxGeometry relative="1" as="geometry">
            <mxPoint x="2170" y="364.55555555555543" as="targetPoint" />
          </mxGeometry>
        </mxCell>
        <mxCell id="_M13H955xm92BstBZ7Hc-14" value="&lt;font style=&quot;font-size: 45px;&quot;&gt;Dryer&lt;/font&gt;" style="rounded=1;whiteSpace=wrap;html=1;strokeWidth=6;fillColor=#ffe6cc;strokeColor=#d79b00;" vertex="1" parent="1">
          <mxGeometry x="1690" y="300" width="250" height="130" as="geometry" />
        </mxCell>
        <mxCell id="_M13H955xm92BstBZ7Hc-15" value="&lt;font style=&quot;font-size: 45px;&quot;&gt;Rice Husk&amp;nbsp; Briquette&lt;/font&gt;" style="rounded=1;whiteSpace=wrap;html=1;strokeWidth=6;fillColor=#dae8fc;strokeColor=#6c8ebf;" vertex="1" parent="1">
          <mxGeometry x="2180" y="180" width="250" height="360" as="geometry" />
        </mxCell>
      </root>
    </mxGraphModel>
  </diagram>
</mxfile>
